{"title":"Pocket Ninjas [1997][IMDB Bottom 100 #3]","uid":5423147,"size":734205999,"categoryP":"video","categoryS":"movies","magnet":"?xt=urn:btih:709adcbba9154e12ca948a1a075911c9e7915de4&amp;dn=Pocket+Ninjas+%5B1997%5D%5BIMDB+Bottom+100+%233%5D&amp;tr=udp%3A%2F%2Ftracker.openbittorrent.com%3A80&amp;tr=udp%3A%2F%2Fopen.demonii.com%3A1337&amp;tr=udp%3A%2F%2Ftracker.coppersurfer.tk%3A6969&amp;tr=udp%3A%2F%2Fexodus.desync.com%3A6969","seeders":1,"leechers":0,"uploader":"aszeran","files":2,"time":1268152298,"description":".\n[url]http://www.imdb.com/title/tt0107838/[/url]\n\nFrom the infamous IMDB Bottom top 100, here's the #3 with a rating of 1.4  :D .\n\n[b]The evil Cobra Khan rises from the underworld and begins polluting the environment. The Whit Dragon tries to stop him but is injured so must pass the job onto his three teenage students.[/b]\n\nGeneral\nComplete name                    : Z:SeedboxPocket Ninjas (1997)Pocket Ninjas (1997).avi\nFormat                           : AVI\nFormat/Info                      : Audio Video Interleave\nFile size                        : 700 MiB\nDuration                         : 1h 17mn\nOverall bit rate                 : 1 258 Kbps\nWriting application              : VirtualDubMod 1.5.4.1 (build 2178/release)\nWriting library                  : VirtualDubMod build 2178/release\n\nVideo\nFormat                           : MPEG-4 Visual\nFormat profile                   : Streaming Video@L1\nFormat settings, BVOP            : Yes\nFormat settings, QPel            : No\nFormat settings, GMC             : No warppoints\nFormat settings, Matrix          : Custom\nCodec ID                         : XVID\nCodec ID/Hint                    : XviD\nDuration                         : 1h 17mn\nBit rate                         : 1 142 Kbps\nWidth                            : 512 pixels\nHeight                           : 384 pixels\nDisplay aspect ratio             : 4/3\nFrame rate                       : 23.976 fps\nResolution                       : 24 bits\nColorimetry                      : 4:2:0\nScan type                        : Progressive\nBits/(Pixel*Frame)               : 0.242\nStream size                      : 635 MiB (91%)\nWriting library                  : XviD 1.2.0.dev47 (UTC 2006-11-01)\n\nAudio\nFormat                           : MPEG Audio\nFormat version                   : Version 1\nFormat profile                   : Layer 3\nCodec ID                         : 55\nCodec ID/Hint                    : MP3\nDuration                         : 1h 17mn\nBit rate mode                    : Variable\nBit rate                         : 104 Kbps\nMinimum bit rate                 : 128 Kbps\nChannel(s)                       : 2 channels\nSampling rate                    : 48.0 KHz\nResolution                       : 16 bits\nStream size                      : 57.7 MiB (8%)\nAlignment                        : Aligned on interleaves\nInterleave, duration             : 24 ms (0.58 video frame)\nInterleave, preload duration     : 526 ms\nWriting library                  : LAME3.97 \nEncoding settings                : ABR\nLanguage                         : ???","torrent":{"xt":"urn:btih:709adcbba9154e12ca948a1a075911c9e7915de4","amp;dn":"Pocket+Ninjas+%5B1997%5D%5BIMDB+Bottom+100+%233%5D","amp;tr":["udp%3A%2F%2Ftracker.openbittorrent.com%3A80","udp%3A%2F%2Fopen.demonii.com%3A1337","udp%3A%2F%2Ftracker.coppersurfer.tk%3A6969","udp%3A%2F%2Fexodus.desync.com%3A6969"],"infoHash":"709adcbba9154e12ca948a1a075911c9e7915de4","infoHashBuffer":{"type":"Buffer","data":[112,154,220,187,169,21,78,18,202,148,138,26,7,89,17,201,231,145,93,228]},"announce":[],"urlList":[]}}